<?xml version="1.0" encoding="UTF-8"?>
<svg xmlns="http://www.w3.org/2000/svg" xmlns:xlink="http://www.w3.org/1999/xlink" viewBox="0 0 384 384" width="384px" height="384px">
<g id="surface23294888">
<rect x="0" y="0" width="384" height="384" style="fill:rgb(54.509807%,56.470591%,59.607846%);fill-opacity:1;stroke:none;"/>
<path style=" stroke:none;fill-rule:nonzero;fill:rgb(100%,100%,100%);fill-opacity:1;" d="M 272 48 L 112 48 C 76.65625 48 48 76.65625 48 112 L 48 272 C 48 307.34375 76.65625 336 112 336 L 201.9375 336 L 201.9375 224.625 L 164.449219 224.625 L 164.449219 181.023438 L 201.9375 181.023438 L 201.9375 148.945312 C 201.9375 111.761719 224.671875 91.488281 257.855469 91.488281 C 269.039062 91.457031 280.207031 92.03125 291.328125 93.167969 L 291.328125 132.046875 L 268.480469 132.046875 C 250.398438 132.046875 246.878906 140.59375 246.878906 153.199219 L 246.878906 180.960938 L 290.078125 180.960938 L 284.464844 224.558594 L 246.625 224.558594 L 246.625 336 L 272 336 C 307.34375 336 336 307.34375 336 272 L 336 112 C 336 76.65625 307.34375 48 272 48 Z M 272 48 "/>
</g>
</svg>
